<svg width="1080" height="1080" viewBox="0 0 1080 1080" fill="none" xmlns="http://www.w3.org/2000/svg">
<rect width="1080" height="1080" fill="white"/>
<path d="M529.137 862.624C443.177 862.624 337.977 828.274 302 804.623C397.043 887.965 417.51 910.624 535.581 906.548C666.064 902.043 826.081 760.136 748.757 804.623C671.434 849.109 568.336 862.624 529.137 862.624Z" fill="#1B1F28"/>
<ellipse cx="530" cy="686.5" rx="248" ry="123.5" fill="#1B1F28"/>
<path d="M529 670C409.494 674.715 401 696 327.724 757.903C316.447 746.735 304.978 757.903 316.447 746.735C350.28 713.79 355 670 521.051 656.834C665.664 645.367 716.169 719.56 735.859 756.786C749.464 780.424 747.714 825.272 724.582 762.928C705.5 711.5 628.745 666.064 529 670Z" fill="white" stroke="white"/>
<path d="M282.513 732C282.513 743.186 303.009 775.735 361.387 800.791C419.764 825.847 512.338 828.382 551.328 826.518C598.724 823.349 701.457 809.963 733.222 781.776C763.76 754.676 772.94 739.19 773.921 734.225L774 733.678C773.986 733.843 773.96 734.026 773.921 734.225L767.025 781.776C724.458 808.062 624.3 845.533 551.328 845.533C461.847 845.533 410.478 856.241 287.878 775.064C281.966 771.149 274.465 751.016 282.513 732Z" fill="#1B1F28"/>
<path d="M271.021 630L149 487.853L202.518 447C277.265 488.04 414.557 570.119 365.749 570.119C316.94 570.119 282.26 610.04 271.021 630Z" fill="#1B1F28"/>
<ellipse cx="16.9235" cy="20.3742" rx="16.9235" ry="20.3742" transform="matrix(0.760339 -0.649526 0.616506 0.78735 184.246 486.522)" fill="white"/>
<rect width="384.256" height="9.9411" transform="matrix(0.805173 -0.59304 0.559535 0.828806 77 667.772)" fill="white"/>
<rect width="217.709" height="9.9411" transform="matrix(0.805173 -0.59304 0.559535 0.828806 174.594 622.964)" fill="white"/>
<path d="M430.208 465.468C403.419 432.83 419.046 402.721 430.208 391.746V376L417.27 391.746C408.011 409.282 395.048 448.577 417.27 465.468C439.493 482.36 435.155 529.528 430.208 551C441.37 536.089 456.997 498.106 430.208 465.468Z" fill="#1B1F28"/>
<path d="M396.125 466.192C380.051 446.423 389.428 428.185 396.125 421.538V412L388.362 421.538C382.807 432.16 375.029 455.961 388.362 466.192C401.696 476.424 399.093 504.994 396.125 518C402.822 508.968 412.198 485.962 396.125 466.192Z" fill="#1B1F28"/>
<path d="M685.208 361.468C658.419 328.83 674.046 298.721 685.208 287.746V272L672.27 287.746C663.011 305.282 650.048 344.577 672.27 361.468C694.493 378.36 690.155 425.528 685.208 447C696.37 432.089 711.997 394.106 685.208 361.468Z" fill="#1B1F28"/>
<path d="M733.125 359.703C717.051 339.748 726.428 321.338 733.125 314.628V305L725.362 314.628C719.807 325.35 712.029 349.375 725.362 359.703C738.696 370.031 736.093 398.871 733.125 412C739.822 402.883 749.198 379.659 733.125 359.703Z" fill="#1B1F28"/>
<path d="M568.312 130.152L521.399 168.697C517.782 171.669 517.047 176.917 519.708 180.768L536.065 204.437C538.653 208.183 543.631 209.405 547.66 207.285L601.932 178.727C606.738 176.197 608.226 170.018 605.097 165.578L581.382 131.922C578.368 127.645 572.355 126.831 568.312 130.152Z" fill="#BF1B2C"/>
<path d="M570.496 580.112L558.436 589.98C554.802 592.953 554.064 598.219 556.741 602.077L558.402 604.47C560.99 608.2 565.952 609.418 569.973 607.311L583.889 600.019C588.712 597.492 590.204 591.294 587.059 586.849L583.542 581.879C580.528 577.62 574.535 576.808 570.496 580.112Z" fill="#BF1B2C"/>
<path d="M509 321.467C509 317.641 511.418 314.234 515.029 312.971L558.789 297.669C565.642 295.273 572.365 301.558 570.436 308.556L556.351 359.655C555.504 362.729 553.094 365.125 550.015 365.954L520.34 373.946C514.622 375.486 509 371.178 509 365.255V321.467Z" fill="#F68712"/>
<path d="M507 590.834C507 587.03 509.392 583.636 512.975 582.358L525.802 577.781C532.643 575.339 539.409 581.591 537.515 588.604L532.727 606.33C531.896 609.408 529.498 611.817 526.424 612.662L518.385 614.871C512.656 616.446 507 612.134 507 606.193V590.834Z" fill="#F68712"/>
<path d="M674.714 506.246C678.149 508.074 680.099 511.943 679.547 515.835L672.789 563.495C671.761 570.746 663.224 573.667 657.983 568.561L621.45 532.973C619.147 530.73 618.143 527.426 618.809 524.285L625.499 492.735C626.726 486.952 632.938 484.013 638.114 486.768L674.714 506.246Z" fill="#F68712"/>
<path d="M616.038 719.311C619.473 721.139 621.423 725.007 620.871 728.9L617.594 752.01C616.566 759.261 608.029 762.183 602.787 757.077L584.372 739.137C582.069 736.894 581.065 733.59 581.731 730.45L584.916 715.429C586.143 709.646 592.355 706.707 597.531 709.461L616.038 719.311Z" fill="#F68712"/>
<path d="M615.197 299.641L592.451 285.575C586.516 281.905 586.835 273.169 593.021 269.941L599.204 266.716C601.31 265.617 603.765 265.395 606.034 266.099L629.901 273.503C635.817 275.339 638.154 282.464 634.473 287.447L627.17 297.334C624.387 301.101 619.18 302.104 615.197 299.641Z" fill="#80CC28"/>
<path d="M610.05 390.19L579.078 433.187C575.014 438.829 575.706 446.598 580.703 451.432L600.819 470.894C606.116 476.018 614.479 476.158 619.945 471.215L656.715 437.956C662.411 432.804 662.893 424.025 657.795 418.28L631.881 389.081C625.928 382.373 615.292 382.914 610.05 390.19Z" fill="#BF1B2C"/>
<path d="M495.249 717.282L482.022 735.732C477.985 741.363 478.674 749.099 483.642 753.928L489.71 759.827C495.013 764.982 503.412 765.123 508.885 760.149L524.786 745.697C530.45 740.549 530.93 731.806 525.863 726.069L517.121 716.171C511.166 709.429 500.49 709.971 495.249 717.282Z" fill="#BF1B2C"/>
<path d="M482.293 390.359L443.475 402.116C437.303 403.985 434.056 410.737 436.448 416.725L457.935 470.504C458.92 472.967 460.761 474.992 463.12 476.205L501.496 495.941C509.892 500.259 519.468 492.689 517.206 483.523L496.161 398.251C494.652 392.135 488.323 388.533 482.293 390.359Z" fill="#80CC28"/>
<path d="M655.882 627.042L649.993 597.013C649.055 592.23 644.11 589.357 639.518 590.926L602.407 603.61C600.576 604.235 599.04 605.506 598.083 607.187L582.074 635.301C578.711 641.207 583.82 648.397 590.512 647.176L649.522 636.407C653.883 635.611 656.738 631.407 655.882 627.042Z" fill="#80CC28"/>
<path d="M816.393 623.611C801.961 645.151 782.911 633.951 776.818 624.749C776.326 624.007 775.832 623.272 775.25 622.598L711.178 548.35C707.034 543.547 706.943 536.456 711.065 531.635C753.186 482.368 815.063 423.566 839.304 432.332C864.69 441.513 864.626 447.447 870.19 444.654C871.472 444.011 872.505 442.973 873.384 441.841L971.533 315.413C975.979 309.686 984.252 308.703 989.916 313.228L995.68 317.833C1001.72 322.661 1002.24 331.667 996.787 337.153L886.391 448.242C885.788 448.849 885.104 449.39 884.432 449.92L884.419 449.93C873.24 458.76 885.267 474.204 895.647 484.619C900.23 489.216 901.23 496.374 897.629 501.775L816.393 623.611Z" fill="#1B1F28"/>
</svg>
